<?xml version="1.0" encoding="utf-8"?>
<!-- Generator: Adobe Illustrator 25.0.1, SVG Export Plug-In . SVG Version: 6.00 Build 0)  -->
<svg version="1.1" id="Layer_1" xmlns="http://www.w3.org/2000/svg" xmlns:xlink="http://www.w3.org/1999/xlink" x="0px" y="0px"
	 viewBox="0 0 145.64 46.79" style="enable-background:new 0 0 145.64 46.79;" xml:space="preserve">
<style type="text/css">
	.st0{opacity:0.85;}
	.st1{fill:#72BDB4;}
	.st2{fill:#952E6E;}
	.st3{fill:#56B3B4;}
</style>
<g>
	<g class="st0">
		<g>
			<path class="st1" d="M124.71,23.91c-0.1,0.31-0.15,0.68-0.15,1.12c0,0.33,0.03,0.64,0.1,0.93c0.06,0.29,0.15,0.54,0.28,0.76
				c0.12,0.21,0.27,0.39,0.45,0.51c0.18,0.13,0.39,0.19,0.62,0.19c0.21,0,0.41-0.07,0.58-0.2c0.17-0.13,0.32-0.31,0.44-0.53
				c0.12-0.22,0.22-0.48,0.29-0.78s0.1-0.61,0.1-0.95V24.8c0-0.28-0.02-0.54-0.05-0.8c-0.03-0.26-0.1-0.48-0.2-0.68
				c-0.1-0.2-0.23-0.36-0.39-0.48c-0.16-0.12-0.38-0.18-0.66-0.18c-0.17,0-0.34,0.04-0.53,0.12c-0.18,0.08-0.36,0.21-0.51,0.4
				C124.93,23.36,124.81,23.61,124.71,23.91 M108.65,23.91c-0.1,0.31-0.15,0.68-0.15,1.12c0,0.33,0.03,0.64,0.1,0.93
				c0.06,0.29,0.15,0.54,0.28,0.76c0.12,0.21,0.27,0.39,0.45,0.51c0.18,0.13,0.39,0.19,0.62,0.19c0.21,0,0.41-0.07,0.58-0.2
				c0.17-0.13,0.32-0.31,0.45-0.53c0.12-0.22,0.22-0.48,0.28-0.78s0.1-0.61,0.1-0.95V24.8c0-0.28-0.02-0.54-0.05-0.8
				c-0.03-0.26-0.1-0.48-0.2-0.68c-0.1-0.2-0.23-0.36-0.39-0.48c-0.17-0.12-0.39-0.18-0.66-0.18c-0.17,0-0.34,0.04-0.53,0.12
				c-0.18,0.08-0.35,0.21-0.51,0.4C108.87,23.36,108.75,23.61,108.65,23.91 M90.6,23.5c0-0.85,0.15-1.59,0.45-2.24
				c0.3-0.65,0.71-1.18,1.23-1.62c0.51-0.43,1.12-0.76,1.81-0.98c0.69-0.22,1.42-0.33,2.2-0.33c1.29,0,2.37,0.24,3.24,0.74
				l0.12,2.29l-0.29,0.05c-0.14-0.38-0.32-0.73-0.51-1.04c-0.2-0.32-0.41-0.59-0.66-0.81c-0.24-0.22-0.52-0.4-0.82-0.52
				c-0.3-0.12-0.64-0.18-1.02-0.18c-0.64,0-1.21,0.11-1.69,0.32c-0.49,0.21-0.89,0.52-1.22,0.91c-0.33,0.39-0.57,0.86-0.74,1.41
				c-0.17,0.55-0.26,1.16-0.26,1.83c0,0.6,0.09,1.18,0.27,1.73s0.43,1.03,0.77,1.44c0.33,0.41,0.73,0.74,1.21,0.98
				c0.48,0.24,1.01,0.36,1.61,0.36c0.73,0,1.24-0.15,1.53-0.44c0.29-0.29,0.44-0.67,0.44-1.14V24.6c0-0.16-0.04-0.27-0.11-0.32
				c-0.07-0.05-0.19-0.09-0.34-0.11l-1.18-0.11v-0.4c0.76,0.04,1.5,0.06,2.22,0.06c0.72,0,1.46-0.02,2.22-0.06v0.4l-0.79,0.11
				c-0.17,0.03-0.28,0.07-0.34,0.13c-0.06,0.06-0.1,0.16-0.1,0.3v1.7c0,0.29,0,0.51-0.01,0.67c-0.01,0.16-0.04,0.29-0.1,0.38
				c-0.06,0.1-0.15,0.18-0.26,0.24c-0.12,0.06-0.28,0.13-0.48,0.22c-0.2,0.08-0.41,0.15-0.65,0.21c-0.24,0.06-0.49,0.11-0.76,0.15
				c-0.27,0.04-0.54,0.07-0.82,0.1c-0.28,0.02-0.56,0.04-0.83,0.04c-0.75,0-1.45-0.11-2.09-0.33c-0.65-0.22-1.21-0.54-1.69-0.95
				c-0.48-0.41-0.85-0.92-1.12-1.51C90.74,24.93,90.6,24.26,90.6,23.5 M101.6,27.89l0.55-0.14c0.2-0.06,0.32-0.14,0.37-0.24
				c0.05-0.1,0.08-0.28,0.08-0.54v-2.95c0-0.2-0.04-0.35-0.12-0.45c-0.08-0.1-0.26-0.17-0.55-0.22l-0.31-0.06l0.02-0.26
				c0.38-0.11,0.75-0.28,1.12-0.51c0.37-0.22,0.67-0.53,0.89-0.92h0.26l0.06,1.81c0.08-0.18,0.17-0.35,0.26-0.5
				c0.1-0.15,0.23-0.32,0.39-0.5c0.17-0.18,0.32-0.31,0.47-0.37c0.15-0.06,0.29-0.09,0.42-0.09c0.24,0,0.44,0.07,0.61,0.22
				c0.16,0.15,0.24,0.37,0.24,0.67c0,0.28-0.06,0.49-0.18,0.65c-0.12,0.16-0.29,0.24-0.52,0.24c-0.12,0-0.22-0.03-0.31-0.08
				c-0.09-0.06-0.17-0.12-0.24-0.19c-0.07-0.07-0.14-0.14-0.21-0.19c-0.07-0.06-0.13-0.09-0.19-0.09c-0.09,0-0.17,0.04-0.25,0.11
				c-0.08,0.08-0.15,0.17-0.22,0.28c-0.07,0.11-0.12,0.24-0.17,0.38c-0.04,0.14-0.07,0.27-0.08,0.39c-0.01,0.1-0.02,0.19-0.03,0.28
				c-0.01,0.08-0.01,0.16,0,0.23V27c0,0.26,0.04,0.42,0.13,0.5c0.09,0.08,0.26,0.15,0.52,0.22l0.74,0.15v0.25
				c-0.23-0.02-0.5-0.03-0.79-0.04c-0.29-0.01-0.59-0.01-0.89-0.01h-0.28c-0.32,0-0.64,0.01-0.95,0.02s-0.6,0.03-0.88,0.05V27.89z
				 M107.16,25.42c0-0.54,0.08-1.02,0.25-1.43c0.17-0.41,0.38-0.76,0.65-1.05c0.27-0.29,0.58-0.5,0.93-0.65
				c0.35-0.14,0.72-0.21,1.1-0.21c0.23,0,0.44,0.02,0.63,0.06c0.18,0.04,0.35,0.09,0.48,0.14c0.16,0.05,0.3,0.11,0.42,0.18
				l0.89-0.51l0.13,0.05c0,0.8,0,1.59,0.01,2.37c0,0.78,0.01,1.57,0.01,2.37c0,0.41,0.16,0.6,0.5,0.58c0.08,0,0.14-0.01,0.19-0.04
				c0.05-0.03,0.09-0.05,0.13-0.07c0.04-0.03,0.08-0.07,0.12-0.11l0.1,0.15c-0.08,0.19-0.17,0.36-0.29,0.51
				c-0.11,0.13-0.24,0.25-0.39,0.35c-0.16,0.1-0.35,0.15-0.58,0.15c-0.38,0-0.65-0.12-0.82-0.37c-0.17-0.25-0.25-0.56-0.25-0.95
				v-0.4c-0.06,0.22-0.14,0.43-0.23,0.64c-0.1,0.21-0.22,0.39-0.37,0.55c-0.15,0.16-0.33,0.29-0.54,0.38
				c-0.21,0.1-0.45,0.15-0.74,0.15c-0.4,0-0.74-0.07-1.04-0.22c-0.29-0.15-0.53-0.35-0.72-0.61c-0.19-0.26-0.33-0.56-0.42-0.91
				C107.21,26.19,107.16,25.82,107.16,25.42 M114.32,22.87c-0.01-0.11,0.06-0.2,0.2-0.26c0.21-0.09,0.39-0.19,0.56-0.29
				c0.17-0.1,0.31-0.21,0.42-0.32c0.11-0.11,0.26-0.28,0.45-0.51c0.2-0.22,0.35-0.5,0.45-0.81h0.26c0,0.28,0,0.55,0.01,0.82
				c0,0.27,0.01,0.54,0.01,0.82l1.88-0.05v0.66l-1.88,0.06v2.9c0,0.51,0.05,0.9,0.14,1.16c0.09,0.26,0.32,0.38,0.68,0.36
				c0.15,0,0.31-0.02,0.49-0.07s0.38-0.16,0.61-0.33l0.13,0.21c-0.17,0.27-0.4,0.51-0.71,0.74c-0.31,0.23-0.72,0.34-1.23,0.34
				c-0.52,0-0.89-0.14-1.12-0.42c-0.23-0.28-0.34-0.79-0.34-1.51v-3.36c-0.14,0-0.27,0-0.39,0.01c-0.13,0.01-0.26,0.01-0.39,0.01
				S114.32,22.98,114.32,22.87 M119.11,27.8l0.66-0.15c0.3-0.06,0.45-0.25,0.45-0.57v-2.88c0-0.25-0.06-0.43-0.18-0.54
				c-0.12-0.11-0.35-0.21-0.7-0.29v-0.31c0.17-0.04,0.35-0.1,0.54-0.18s0.36-0.16,0.54-0.26c0.17-0.1,0.34-0.2,0.48-0.31
				c0.15-0.11,0.26-0.23,0.35-0.37c0.06,0,0.11,0,0.17,0.01c0.05,0.01,0.1,0.01,0.15,0.01v5.17c0,0.15,0.02,0.27,0.07,0.35
				c0.04,0.08,0.13,0.13,0.26,0.16l0.6,0.17v0.34c-0.15-0.02-0.38-0.04-0.67-0.05s-0.63-0.02-1.02-0.02c-0.39,0-0.73,0.01-1.02,0.02
				s-0.52,0.03-0.67,0.05V27.8z M123.22,25.42c0-0.54,0.08-1.02,0.25-1.43c0.16-0.41,0.38-0.76,0.65-1.05
				c0.27-0.29,0.58-0.5,0.93-0.65c0.35-0.14,0.72-0.21,1.1-0.21c0.23,0,0.44,0.02,0.63,0.06c0.19,0.04,0.35,0.09,0.48,0.14
				c0.15,0.05,0.3,0.11,0.42,0.18l0.89-0.51l0.13,0.05c0,0.8,0,1.59,0.01,2.37c0.01,0.78,0.01,1.57,0.01,2.37
				c0,0.41,0.17,0.6,0.5,0.58c0.08,0,0.14-0.01,0.19-0.04c0.05-0.03,0.09-0.05,0.13-0.07c0.04-0.03,0.08-0.07,0.12-0.11l0.1,0.15
				c-0.08,0.19-0.17,0.36-0.29,0.51c-0.11,0.13-0.24,0.25-0.39,0.35c-0.16,0.1-0.35,0.15-0.58,0.15c-0.38,0-0.65-0.12-0.82-0.37
				c-0.16-0.25-0.25-0.56-0.25-0.95v-0.4c-0.06,0.22-0.14,0.43-0.23,0.64c-0.1,0.21-0.22,0.39-0.37,0.55
				c-0.15,0.16-0.33,0.29-0.54,0.38c-0.21,0.1-0.45,0.15-0.74,0.15c-0.4,0-0.74-0.07-1.04-0.22c-0.29-0.15-0.53-0.35-0.72-0.61
				c-0.19-0.26-0.33-0.56-0.42-0.91C123.27,26.19,123.22,25.82,123.22,25.42 M121.78,19.56c0,0.21-0.08,0.39-0.25,0.56
				c-0.17,0.17-0.36,0.25-0.58,0.25c-0.22,0-0.41-0.08-0.55-0.24c-0.15-0.16-0.22-0.35-0.22-0.58c0-0.23,0.08-0.44,0.23-0.61
				c0.16-0.17,0.34-0.25,0.55-0.25c0.22,0,0.42,0.08,0.58,0.25C121.7,19.12,121.78,19.32,121.78,19.56 M84.75,46.79l44.93-1.44V5.89
				L89.58,0L84.75,46.79z"/>
		</g>
	</g>
</g>
<g>
	<path class="st2" d="M145.3,34.38l-0.09-1.29c-0.4-0.24-0.91-0.35-1.51-0.35c-0.57,0-1.05,0.14-1.43,0.42
		c-0.38,0.28-0.58,0.66-0.58,1.13c0,0.44,0.14,0.8,0.42,1.07c0.28,0.27,0.75,0.53,1.4,0.78c0.93,0.34,1.39,0.79,1.39,1.36
		c0,0.32-0.11,0.57-0.33,0.77c-0.22,0.2-0.5,0.3-0.86,0.3c-0.18,0-0.36-0.04-0.54-0.13c-0.18-0.08-0.35-0.2-0.51-0.35
		c-0.16-0.15-0.3-0.34-0.43-0.55c-0.13-0.21-0.23-0.45-0.3-0.72h-0.25l0.15,1.67c0.46,0.26,1.04,0.38,1.74,0.38
		c0.28,0,0.54-0.04,0.79-0.13c0.25-0.08,0.47-0.2,0.66-0.35s0.34-0.34,0.44-0.56c0.11-0.22,0.16-0.47,0.16-0.75
		c0-0.77-0.56-1.37-1.67-1.8c-0.48-0.18-0.84-0.36-1.08-0.54c-0.24-0.18-0.36-0.41-0.36-0.67c0-0.66,0.36-0.99,1.08-0.99
		c0.12,0,0.25,0.04,0.4,0.11c0.15,0.07,0.29,0.17,0.42,0.29c0.13,0.12,0.25,0.26,0.36,0.42c0.11,0.16,0.18,0.32,0.22,0.47H145.3z
		 M138.54,35.71c0,0.35-0.05,0.68-0.14,0.98c-0.09,0.3-0.22,0.56-0.38,0.78c-0.16,0.22-0.35,0.39-0.56,0.52
		c-0.22,0.12-0.45,0.19-0.69,0.19c-0.3,0-0.58-0.07-0.82-0.2c-0.24-0.13-0.44-0.32-0.61-0.55c-0.16-0.23-0.29-0.5-0.38-0.8
		c-0.09-0.3-0.13-0.62-0.13-0.95c0-0.42,0.06-0.79,0.19-1.09c0.13-0.31,0.29-0.55,0.49-0.75c0.2-0.19,0.41-0.33,0.65-0.42
		c0.24-0.09,0.46-0.13,0.68-0.13c0.63,0,1.07,0.2,1.32,0.6c0.25,0.4,0.38,0.95,0.38,1.66V35.71z M137.23,38.66
		c0.23-0.09,0.43-0.21,0.6-0.36c0.17-0.15,0.31-0.32,0.42-0.52c0.11-0.19,0.2-0.39,0.27-0.6v0.43c0,0.38,0.07,0.67,0.21,0.87
		c0.14,0.21,0.36,0.31,0.68,0.31c0.2,0,0.36-0.05,0.5-0.14c0.14-0.09,0.25-0.2,0.34-0.32c0.11-0.14,0.2-0.3,0.27-0.47l-0.15-0.07
		c-0.04,0.04-0.08,0.08-0.13,0.12c-0.05,0.03-0.1,0.06-0.16,0.08c-0.05,0.03-0.12,0.04-0.2,0.04c-0.33,0.02-0.5-0.17-0.5-0.56
		c0-0.77,0-1.54-0.01-2.3c-0.01-0.77-0.01-1.54-0.01-2.3l-0.13-0.04l-0.81,0.41c-0.13-0.07-0.27-0.13-0.41-0.18
		c-0.13-0.05-0.28-0.09-0.44-0.13c-0.17-0.04-0.34-0.06-0.52-0.06c-0.38,0-0.74,0.07-1.11,0.21c-0.36,0.14-0.69,0.34-0.98,0.61
		c-0.29,0.27-0.52,0.6-0.69,1c-0.18,0.4-0.27,0.86-0.27,1.38c0,0.38,0.05,0.74,0.15,1.08c0.1,0.33,0.25,0.62,0.45,0.87
		c0.2,0.25,0.46,0.44,0.76,0.58c0.3,0.14,0.66,0.21,1.06,0.21C136.73,38.8,137,38.75,137.23,38.66 M130.62,32.28
		c-0.11,0.21-0.21,0.37-0.31,0.49c-0.18,0.22-0.48,0.42-0.92,0.6c-0.13,0.06-0.19,0.13-0.19,0.2c0,0.07,0.07,0.11,0.21,0.11
		s0.27,0,0.4-0.01c0.13-0.01,0.26-0.01,0.4-0.01v3.34c0,0.37,0.02,0.68,0.04,0.92c0.03,0.24,0.09,0.43,0.18,0.57
		c0.09,0.14,0.21,0.24,0.37,0.3c0.16,0.05,0.36,0.08,0.61,0.08c0.49,0,0.87-0.05,1.14-0.16c0.27-0.1,0.51-0.27,0.72-0.51L133.13,38
		c-0.48,0.26-0.87,0.39-1.17,0.41c-0.38,0.02-0.62-0.12-0.7-0.42c-0.08-0.3-0.12-0.75-0.12-1.34v-3.01l2.01-0.06v-0.53l-2.01,0.04
		c0-0.27,0-0.53-0.01-0.79s-0.01-0.52-0.01-0.79h-0.18C130.84,31.82,130.73,32.08,130.62,32.28 M126.25,29.87
		c-0.13,0.13-0.19,0.28-0.19,0.44c0,0.17,0.06,0.31,0.18,0.43c0.12,0.12,0.26,0.18,0.43,0.18c0.18,0,0.34-0.06,0.48-0.18
		c0.14-0.12,0.21-0.26,0.21-0.42c0-0.17-0.07-0.32-0.21-0.44c-0.14-0.13-0.29-0.19-0.46-0.19
		C126.52,29.68,126.37,29.75,126.25,29.87 M128.31,38.46l-0.75-0.18c-0.13-0.03-0.21-0.08-0.26-0.15c-0.04-0.07-0.07-0.18-0.07-0.32
		v-5.08H127c-0.33,0.53-0.84,0.89-1.54,1.06V34c0.35,0.08,0.59,0.17,0.71,0.28c0.12,0.11,0.18,0.28,0.18,0.52v2.97
		c0,0.3-0.15,0.47-0.46,0.53l-0.83,0.16v0.24c0.16-0.02,0.37-0.04,0.63-0.04c0.27-0.01,0.6-0.01,0.99-0.01
		c0.39,0,0.72,0.01,0.99,0.01c0.27,0.01,0.48,0.02,0.64,0.04V38.46z M120.56,38.65c0.3-0.01,0.62-0.01,0.96-0.01h0.19
		c0.37,0,0.72,0.01,1.05,0.01c0.33,0.01,0.62,0.02,0.89,0.04v-0.24l-1.14-0.16c-0.28-0.04-0.46-0.1-0.54-0.19
		c-0.08-0.08-0.12-0.25-0.12-0.51v-2.45c0-0.1,0.03-0.22,0.09-0.38c0.06-0.15,0.13-0.3,0.22-0.45c0.09-0.15,0.19-0.27,0.3-0.38
		c0.11-0.1,0.22-0.16,0.33-0.16c0.13,0,0.28,0.04,0.47,0.12c0.18,0.08,0.35,0.12,0.51,0.12c0.16,0,0.29-0.05,0.4-0.15
		c0.11-0.1,0.16-0.24,0.16-0.43c0-0.2-0.07-0.36-0.2-0.5c-0.13-0.14-0.32-0.21-0.57-0.21c-0.26,0-0.56,0.17-0.9,0.5
		c-0.35,0.32-0.62,0.66-0.81,1.02c0-0.35-0.01-0.69-0.02-1c-0.01-0.31-0.02-0.6-0.04-0.86h-0.27c-0.2,0.41-0.42,0.71-0.68,0.89
		s-0.58,0.34-0.96,0.48L119.85,34l0.4,0.09c0.29,0.06,0.47,0.13,0.55,0.22s0.13,0.23,0.13,0.43v2.84c0,0.26-0.03,0.43-0.08,0.53
		c-0.05,0.1-0.18,0.17-0.38,0.22l-0.74,0.13v0.24C119.99,38.67,120.26,38.66,120.56,38.65 M115.23,33.49
		c0.31-0.28,0.7-0.41,1.17-0.41c0.38,0,0.67,0.1,0.86,0.31s0.33,0.44,0.41,0.69c0.08,0.27,0.04,0.42-0.11,0.47
		c-0.15,0.04-0.39,0.07-0.7,0.07h-2.24C114.72,34.14,114.92,33.77,115.23,33.49 M118.47,34.03c-0.11-0.27-0.27-0.5-0.47-0.69
		c-0.2-0.19-0.44-0.34-0.7-0.44c-0.27-0.1-0.56-0.16-0.87-0.16c-0.41,0-0.79,0.08-1.14,0.24c-0.34,0.16-0.65,0.38-0.9,0.66
		c-0.26,0.28-0.46,0.61-0.6,0.98c-0.14,0.38-0.21,0.78-0.21,1.21c0,0.43,0.06,0.83,0.19,1.2c0.13,0.37,0.3,0.69,0.53,0.96
		c0.23,0.27,0.49,0.49,0.8,0.64c0.31,0.16,0.64,0.24,1,0.24c1.08,0,1.97-0.43,2.67-1.29l-0.06-0.35c-0.33,0.32-0.64,0.54-0.93,0.68
		c-0.29,0.14-0.6,0.21-0.95,0.21c-0.35,0-0.68-0.06-0.97-0.19c-0.29-0.13-0.54-0.31-0.74-0.53c-0.2-0.23-0.36-0.5-0.47-0.82
		c-0.11-0.32-0.16-0.67-0.16-1.06c0-0.2,0.02-0.39,0.05-0.59h4.12C118.65,34.6,118.58,34.3,118.47,34.03 M112.83,29.36
		c-0.23,0.03-0.82,0.04-1.79,0.04c-0.97,0-1.6-0.01-1.86-0.04v0.24l0.59,0.07c0.27,0.04,0.47,0.08,0.62,0.12
		c0.15,0.04,0.25,0.1,0.3,0.17c0.05,0.07,0.06,0.18,0.04,0.3c-0.02,0.13-0.07,0.3-0.14,0.5l-2.36,6.56l-2.69-6.47
		c-0.11-0.28-0.18-0.49-0.21-0.64c-0.04-0.15-0.03-0.26,0.01-0.33c0.04-0.07,0.12-0.12,0.23-0.15c0.11-0.03,0.26-0.05,0.45-0.08
		l0.95-0.06v-0.24c-0.49,0.03-1.25,0.04-2.26,0.04c-1.02,0-1.7-0.01-2.04-0.04v0.24l0.83,0.18c0.15,0.03,0.26,0.09,0.35,0.18
		c0.08,0.09,0.18,0.26,0.29,0.52l3.6,8.51h0.31l3.4-8.76c0.1-0.27,0.3-0.43,0.6-0.49l0.8-0.13V29.36z"/>
	<path class="st3" d="M81.98,27.64l-0.32-0.08c-0.1-0.03-0.16-0.07-0.19-0.12c-0.03-0.06-0.05-0.15-0.05-0.28v-1.81
		c0-0.44-0.11-0.77-0.33-0.98c-0.22-0.22-0.52-0.32-0.89-0.32c-0.22,0-0.44,0.07-0.67,0.2c-0.22,0.13-0.43,0.32-0.62,0.55v-0.92
		h-0.25c-0.06,0.12-0.14,0.22-0.26,0.31c-0.12,0.09-0.24,0.16-0.37,0.22c-0.13,0.06-0.27,0.11-0.4,0.15
		c-0.14,0.04-0.26,0.07-0.36,0.09v0.18c0.2,0.03,0.35,0.08,0.42,0.15c0.08,0.07,0.12,0.2,0.12,0.4v1.88c0,0.09-0.02,0.16-0.05,0.2
		c-0.03,0.04-0.08,0.07-0.14,0.09l-0.41,0.09v0.24c0.1-0.01,0.25-0.02,0.45-0.02c0.21,0,0.41-0.01,0.61-0.01h0.3h0.29
		c0.08,0,0.15,0,0.21,0.01c0.06,0,0.12,0.01,0.18,0.01c0.05,0,0.11,0.01,0.17,0.01v-0.24l-0.28-0.13c-0.15-0.04-0.23-0.11-0.23-0.21
		v-2.09c0.11-0.13,0.24-0.24,0.4-0.33c0.16-0.09,0.32-0.14,0.46-0.14c0.13,0,0.23,0.02,0.3,0.05c0.07,0.04,0.13,0.09,0.16,0.16
		c0.04,0.07,0.06,0.16,0.07,0.27c0.01,0.1,0.01,0.23,0.01,0.37v1.6c0,0.23-0.07,0.35-0.21,0.37l-0.33,0.08v0.24
		c0.33-0.02,0.7-0.03,1.1-0.03c0.4,0,0.77,0.01,1.1,0.03V27.64z M75.19,24.34c0.17,0,0.28,0.06,0.34,0.19
		c0.06,0.13,0.08,0.29,0.08,0.47c0,0.17-0.08,0.25-0.26,0.25h-0.9C74.59,24.64,74.83,24.34,75.19,24.34 M76.67,25.01
		c-0.06-0.19-0.15-0.36-0.28-0.5c-0.12-0.14-0.28-0.25-0.47-0.34c-0.19-0.08-0.42-0.12-0.69-0.12c-0.3,0-0.57,0.05-0.81,0.14
		c-0.24,0.09-0.45,0.23-0.61,0.41s-0.3,0.38-0.39,0.63c-0.09,0.24-0.14,0.52-0.14,0.81c0,0.3,0.04,0.57,0.13,0.81
		c0.09,0.24,0.21,0.45,0.36,0.62c0.16,0.17,0.34,0.3,0.57,0.4c0.22,0.09,0.47,0.14,0.73,0.14c0.25,0,0.47-0.03,0.66-0.1
		c0.19-0.06,0.35-0.15,0.49-0.25c0.14-0.1,0.26-0.22,0.36-0.35c0.1-0.13,0.19-0.27,0.26-0.42l-0.04-0.14
		c-0.21,0.2-0.41,0.33-0.6,0.4c-0.19,0.06-0.39,0.09-0.61,0.09c-0.18,0-0.34-0.04-0.49-0.1c-0.15-0.07-0.28-0.17-0.38-0.29
		c-0.1-0.12-0.18-0.27-0.24-0.44c-0.06-0.17-0.09-0.35-0.09-0.56c0-0.06,0-0.1,0.01-0.11c0-0.01,0.01-0.05,0.02-0.11h2.36
		C76.76,25.4,76.73,25.2,76.67,25.01 M70.85,27.29c-0.1,0.04-0.25,0.07-0.45,0.07c-0.3,0-0.52-0.13-0.67-0.38
		c-0.15-0.25-0.22-0.58-0.22-0.97c0-0.21,0.02-0.42,0.06-0.6c0.04-0.18,0.1-0.35,0.18-0.48c0.08-0.14,0.17-0.25,0.28-0.33
		c0.11-0.08,0.23-0.12,0.37-0.12c0.16,0,0.29,0.03,0.39,0.09c0.1,0.06,0.17,0.14,0.22,0.23c0.05,0.1,0.08,0.21,0.1,0.33
		c0.02,0.12,0.03,0.25,0.03,0.39v1.6C71.05,27.19,70.95,27.25,70.85,27.29 M71.15,24.3c-0.09-0.08-0.2-0.14-0.33-0.19
		c-0.13-0.05-0.3-0.07-0.51-0.07c-0.23,0-0.46,0.04-0.7,0.13c-0.23,0.09-0.45,0.22-0.64,0.39c-0.19,0.18-0.35,0.4-0.47,0.67
		c-0.12,0.27-0.18,0.59-0.18,0.95c0,0.27,0.04,0.51,0.11,0.74c0.07,0.23,0.18,0.43,0.34,0.62c0.15,0.18,0.32,0.3,0.51,0.36
		C69.48,27.97,69.68,28,69.9,28c0.26,0,0.48-0.06,0.67-0.17c0.19-0.11,0.38-0.25,0.58-0.41v0.63c0.09-0.01,0.21-0.02,0.35-0.03
		c0.15-0.02,0.3-0.03,0.47-0.05c0.17-0.02,0.33-0.04,0.49-0.06c0.16-0.02,0.3-0.05,0.42-0.07v-0.25c-0.15-0.01-0.27-0.01-0.36-0.02
		c-0.09-0.01-0.15-0.02-0.2-0.05c-0.04-0.03-0.07-0.07-0.08-0.14c-0.01-0.06-0.01-0.15-0.01-0.27v-5.54h-0.24
		c-0.08,0.03-0.19,0.06-0.33,0.08c-0.14,0.02-0.29,0.04-0.44,0.06c-0.15,0.02-0.3,0.04-0.45,0.05c-0.15,0.01-0.27,0.02-0.38,0.03
		v0.15c0.17,0.05,0.31,0.09,0.4,0.12c0.1,0.04,0.17,0.08,0.22,0.13c0.05,0.05,0.08,0.11,0.1,0.18s0.02,0.17,0.02,0.29V24.3z
		 M67.95,27.64l-0.32-0.08c-0.1-0.03-0.16-0.07-0.19-0.12s-0.05-0.15-0.05-0.28v-1.81c0-0.44-0.11-0.77-0.33-0.98
		c-0.22-0.22-0.52-0.32-0.89-0.32c-0.22,0-0.44,0.07-0.67,0.2c-0.22,0.13-0.43,0.32-0.62,0.55v-0.92h-0.25
		c-0.06,0.12-0.14,0.22-0.26,0.31c-0.11,0.09-0.24,0.16-0.37,0.22c-0.13,0.06-0.27,0.11-0.4,0.15c-0.14,0.04-0.26,0.07-0.36,0.09
		v0.18c0.2,0.03,0.34,0.08,0.42,0.15c0.08,0.07,0.12,0.2,0.12,0.4v1.88c0,0.09-0.02,0.16-0.05,0.2c-0.03,0.04-0.08,0.07-0.14,0.09
		l-0.41,0.09v0.24c0.1-0.01,0.25-0.02,0.45-0.02c0.21,0,0.41-0.01,0.61-0.01h0.29h0.29c0.08,0,0.15,0,0.21,0.01
		c0.06,0,0.12,0.01,0.18,0.01c0.05,0,0.11,0.01,0.17,0.01v-0.24l-0.28-0.13c-0.15-0.04-0.23-0.11-0.23-0.21v-2.09
		c0.11-0.13,0.24-0.24,0.4-0.33c0.16-0.09,0.32-0.14,0.46-0.14c0.13,0,0.23,0.02,0.3,0.05c0.07,0.04,0.13,0.09,0.16,0.16
		c0.04,0.07,0.06,0.16,0.07,0.27c0.01,0.1,0.01,0.23,0.01,0.37v1.6c0,0.23-0.07,0.35-0.21,0.37l-0.33,0.08v0.24
		c0.33-0.02,0.7-0.03,1.1-0.03c0.4,0,0.77,0.01,1.1,0.03V27.64z M60.08,24.83c0.14-0.28,0.35-0.42,0.64-0.42
		c0.29,0,0.51,0.15,0.65,0.45c0.14,0.3,0.21,0.69,0.21,1.18c0,0.48-0.08,0.87-0.23,1.16c-0.15,0.29-0.37,0.44-0.64,0.44
		c-0.28,0-0.49-0.14-0.63-0.41c-0.14-0.28-0.21-0.65-0.21-1.13C59.87,25.53,59.94,25.11,60.08,24.83 M61.57,27.85
		c0.27-0.09,0.49-0.23,0.67-0.4c0.18-0.17,0.32-0.38,0.42-0.62c0.1-0.24,0.15-0.5,0.15-0.79c0-0.29-0.04-0.55-0.12-0.8
		c-0.08-0.24-0.2-0.46-0.37-0.64c-0.17-0.18-0.38-0.32-0.64-0.42c-0.26-0.1-0.57-0.15-0.93-0.15c-0.36,0-0.67,0.05-0.93,0.15
		c-0.26,0.1-0.47,0.23-0.64,0.41c-0.17,0.18-0.29,0.38-0.38,0.63c-0.08,0.24-0.12,0.51-0.12,0.8c0,0.29,0.04,0.55,0.12,0.79
		c0.08,0.24,0.21,0.45,0.38,0.62c0.17,0.18,0.38,0.32,0.62,0.41c0.25,0.1,0.54,0.15,0.88,0.15C61,28,61.3,27.95,61.57,27.85
		 M55.38,24.93c0-0.09,0.06-0.17,0.17-0.26c0.11-0.08,0.24-0.12,0.4-0.12c0.19,0,0.36,0.04,0.49,0.13c0.14,0.08,0.25,0.2,0.34,0.35
		c0.09,0.15,0.15,0.32,0.19,0.51c0.04,0.19,0.06,0.39,0.06,0.6c0,0.17-0.02,0.34-0.06,0.5c-0.04,0.16-0.1,0.31-0.18,0.43
		c-0.08,0.13-0.17,0.23-0.29,0.31c-0.11,0.08-0.24,0.11-0.38,0.11c-0.27,0-0.46-0.06-0.57-0.18c-0.11-0.12-0.17-0.32-0.17-0.61
		V24.93z M54.01,22.26c0.08,0.05,0.14,0.1,0.18,0.16c0.04,0.06,0.06,0.12,0.07,0.2c0.01,0.07,0.01,0.16,0.01,0.26v5.16h0.33
		c0.07-0.13,0.14-0.22,0.2-0.28c0.06-0.06,0.15-0.09,0.26-0.09c0.07,0,0.14,0.02,0.22,0.05c0.08,0.03,0.16,0.07,0.25,0.11
		c0.09,0.04,0.19,0.07,0.3,0.11c0.11,0.03,0.25,0.05,0.4,0.05c0.59,0,1.07-0.17,1.42-0.52c0.36-0.35,0.54-0.85,0.54-1.52
		c0-0.57-0.15-1.03-0.45-1.39c-0.3-0.35-0.73-0.53-1.3-0.53c-0.2,0-0.38,0.03-0.55,0.1c-0.17,0.06-0.35,0.14-0.53,0.24v-2.82
		l-1.7,0.29l-0.03,0.25C53.81,22.16,53.93,22.21,54.01,22.26 M50.68,27.85c0.21-0.01,0.42-0.01,0.63-0.01h0.22
		c0.16,0,0.33,0,0.5,0.01c0.18,0,0.34,0.01,0.48,0.02v-0.15l-0.31-0.1c-0.17-0.05-0.29-0.1-0.34-0.15
		c-0.06-0.05-0.09-0.15-0.09-0.29v-1.32c-0.01-0.04-0.01-0.1,0-0.16c0.01-0.06,0.02-0.13,0.03-0.2c0.02-0.18,0.07-0.33,0.14-0.45
		c0.07-0.12,0.14-0.18,0.23-0.18c0.04,0,0.08,0.03,0.11,0.08c0.04,0.05,0.08,0.1,0.12,0.16c0.04,0.06,0.09,0.11,0.15,0.16
		c0.06,0.05,0.14,0.08,0.22,0.08c0.18,0,0.31-0.06,0.4-0.19c0.09-0.12,0.13-0.29,0.13-0.49c0-0.22-0.06-0.38-0.18-0.48
		c-0.12-0.09-0.26-0.14-0.42-0.14c-0.08,0-0.18,0.02-0.28,0.04c-0.1,0.03-0.2,0.1-0.3,0.21c-0.1,0.12-0.18,0.22-0.22,0.3
		c-0.05,0.08-0.1,0.18-0.15,0.29c-0.01-0.21-0.02-0.39-0.03-0.55c-0.01-0.16-0.01-0.33-0.01-0.52h-0.17
		c-0.08,0.11-0.17,0.22-0.29,0.31c-0.12,0.09-0.24,0.18-0.38,0.25c-0.14,0.07-0.28,0.14-0.42,0.19c-0.14,0.05-0.27,0.1-0.39,0.13
		v0.18l0.16,0.02c0.19,0.03,0.31,0.07,0.36,0.13c0.05,0.06,0.08,0.16,0.08,0.29v1.83c0,0.17-0.02,0.28-0.05,0.34
		c-0.03,0.06-0.12,0.11-0.24,0.15l-0.29,0.09v0.15C50.28,27.87,50.47,27.86,50.68,27.85 M48.04,24.34c0.17,0,0.29,0.06,0.34,0.19
		s0.09,0.29,0.09,0.47c0,0.17-0.09,0.25-0.26,0.25h-0.89C47.45,24.64,47.69,24.34,48.04,24.34 M49.52,25.01
		c-0.06-0.19-0.15-0.36-0.28-0.5c-0.12-0.14-0.28-0.25-0.47-0.34c-0.19-0.08-0.42-0.12-0.7-0.12c-0.3,0-0.57,0.05-0.81,0.14
		s-0.45,0.23-0.61,0.41s-0.3,0.38-0.39,0.63c-0.09,0.24-0.14,0.52-0.14,0.81c0,0.3,0.04,0.57,0.13,0.81
		c0.09,0.24,0.21,0.45,0.36,0.62c0.15,0.17,0.34,0.3,0.57,0.4c0.22,0.09,0.47,0.14,0.73,0.14c0.25,0,0.47-0.03,0.66-0.1
		c0.19-0.06,0.35-0.15,0.49-0.25c0.14-0.1,0.26-0.22,0.36-0.35c0.1-0.13,0.19-0.27,0.26-0.42l-0.04-0.14
		c-0.21,0.2-0.41,0.33-0.6,0.4c-0.19,0.06-0.39,0.09-0.61,0.09c-0.18,0-0.34-0.04-0.49-0.1c-0.15-0.07-0.28-0.17-0.38-0.29
		c-0.11-0.12-0.19-0.27-0.24-0.44c-0.06-0.17-0.09-0.35-0.09-0.56c0-0.06,0-0.1,0.01-0.11c0-0.01,0.01-0.05,0.02-0.11h2.36
		C49.62,25.4,49.59,25.2,49.52,25.01 M45.26,24.57c0.04-0.05,0.12-0.08,0.22-0.09l0.46-0.07v-0.23c-0.15,0.02-0.48,0.03-1.01,0.03
		s-0.83-0.01-0.91-0.03v0.23l0.32,0.04c0.26,0.03,0.39,0.14,0.39,0.31c0,0.04-0.01,0.1-0.02,0.16c-0.02,0.06-0.04,0.13-0.07,0.2
		l-0.57,1.48l-0.64-1.49c-0.11-0.25-0.15-0.42-0.12-0.51c0.03-0.09,0.1-0.14,0.21-0.16l0.22-0.04v-0.23
		c-0.05,0.01-0.11,0.01-0.21,0.01c-0.09,0-0.2,0.01-0.32,0.01c-0.12,0-0.26,0.01-0.4,0.01c-0.14,0-0.28,0.01-0.42,0.01
		c-0.57,0-0.92-0.01-1.06-0.03v0.23l0.39,0.09c0.1,0.02,0.17,0.05,0.21,0.09c0.04,0.04,0.1,0.14,0.18,0.3l1.44,3.17h0.24l1.3-3.16
		C45.16,24.73,45.22,24.62,45.26,24.57 M37.08,27.56c-0.19,0.05-0.38,0.08-0.58,0.08c-0.2,0-0.39-0.04-0.56-0.11
		c-0.17-0.08-0.32-0.19-0.44-0.33c-0.13-0.14-0.23-0.32-0.29-0.52c-0.07-0.2-0.11-0.43-0.11-0.68c0-0.25,0.03-0.48,0.1-0.68
		c0.06-0.21,0.15-0.39,0.27-0.55c0.11-0.16,0.25-0.28,0.4-0.37c0.15-0.09,0.32-0.13,0.49-0.13c0.28,0,0.5,0.04,0.65,0.13
		c0.15,0.09,0.27,0.19,0.34,0.32c0.07,0.13,0.12,0.27,0.13,0.42c0.02,0.16,0.02,0.3,0.02,0.43v1.8
		C37.42,27.44,37.27,27.51,37.08,27.56 M37.51,24.3c-0.32-0.17-0.73-0.26-1.23-0.26c-0.25,0-0.48,0.06-0.71,0.17
		c-0.23,0.11-0.42,0.27-0.6,0.47c-0.17,0.2-0.31,0.42-0.4,0.68c-0.1,0.26-0.15,0.53-0.15,0.82c0,0.48,0.15,0.91,0.46,1.27
		c0.3,0.36,0.66,0.54,1.08,0.54c0.13,0,0.26-0.01,0.37-0.02c0.11-0.02,0.23-0.04,0.35-0.07c0.12-0.03,0.25-0.07,0.38-0.12
		c0.13-0.05,0.28-0.11,0.45-0.18v0.44c0.18-0.02,0.37-0.05,0.58-0.09c0.21-0.04,0.43-0.08,0.67-0.13v-0.15
		c-0.15-0.01-0.26-0.01-0.35-0.02c-0.09-0.01-0.15-0.02-0.2-0.05c-0.04-0.03-0.07-0.07-0.08-0.14c-0.01-0.06-0.02-0.15-0.02-0.27
		v-5.64h-0.24c-0.17,0.06-0.34,0.1-0.52,0.14c-0.18,0.04-0.38,0.06-0.58,0.08v0.15c0.16,0.04,0.29,0.07,0.39,0.11
		c0.1,0.04,0.17,0.08,0.23,0.12c0.05,0.05,0.09,0.11,0.1,0.18c0.02,0.08,0.02,0.18,0.02,0.31V24.3z M32.54,22.2
		c-0.08,0.08-0.12,0.18-0.12,0.29s0.04,0.2,0.11,0.28c0.08,0.08,0.17,0.11,0.28,0.11c0.12,0,0.22-0.04,0.31-0.12
		c0.09-0.08,0.14-0.17,0.14-0.27c0-0.11-0.04-0.2-0.13-0.29c-0.09-0.08-0.19-0.12-0.3-0.12S32.62,22.12,32.54,22.2 M33.87,27.73
		l-0.49-0.11c-0.08-0.02-0.14-0.05-0.17-0.1c-0.03-0.04-0.04-0.11-0.04-0.21v-3.28h-0.15c-0.21,0.34-0.54,0.57-0.99,0.69v0.13
		c0.23,0.05,0.38,0.11,0.46,0.18c0.08,0.07,0.11,0.18,0.11,0.33v1.91c0,0.19-0.1,0.31-0.3,0.34l-0.53,0.1v0.15
		c0.1-0.01,0.24-0.02,0.41-0.03c0.17-0.01,0.38-0.01,0.64-0.01s0.47,0,0.64,0.01c0.17,0.01,0.31,0.02,0.41,0.03V27.73z M28.88,24.53
		c0.2-0.18,0.45-0.27,0.76-0.27c0.25,0,0.43,0.07,0.56,0.2c0.12,0.13,0.21,0.28,0.26,0.45c0.05,0.17,0.03,0.27-0.07,0.3
		c-0.1,0.03-0.25,0.04-0.45,0.04h-1.45C28.55,24.95,28.68,24.71,28.88,24.53 M30.96,24.88c-0.07-0.18-0.18-0.32-0.31-0.45
		c-0.13-0.12-0.28-0.22-0.45-0.29c-0.17-0.07-0.36-0.1-0.56-0.1c-0.27,0-0.51,0.05-0.73,0.15c-0.22,0.1-0.42,0.24-0.58,0.42
		c-0.17,0.18-0.29,0.39-0.39,0.63s-0.14,0.5-0.14,0.78s0.04,0.54,0.12,0.78c0.08,0.24,0.2,0.44,0.34,0.62
		c0.15,0.17,0.32,0.31,0.52,0.41c0.2,0.1,0.41,0.15,0.64,0.15c0.7,0,1.27-0.28,1.72-0.83l-0.04-0.23c-0.22,0.2-0.42,0.35-0.6,0.44
		c-0.18,0.09-0.39,0.13-0.61,0.13c-0.23,0-0.44-0.04-0.62-0.12c-0.19-0.08-0.35-0.2-0.48-0.34s-0.23-0.32-0.3-0.53
		c-0.07-0.21-0.1-0.43-0.1-0.68c0-0.13,0.01-0.25,0.03-0.38h2.66C31.08,25.24,31.04,25.05,30.96,24.88 M23.31,27.42
		c0,0.08-0.01,0.12-0.04,0.15c-0.03,0.02-0.08,0.04-0.16,0.06l-0.51,0.1v0.15c0.1-0.01,0.24-0.02,0.42-0.03
		c0.17-0.01,0.39-0.01,0.64-0.01s0.47,0,0.64,0.01c0.18,0.01,0.31,0.02,0.42,0.03v-0.15l-0.65-0.16c-0.08-0.02-0.12-0.04-0.15-0.08
		c-0.02-0.03-0.03-0.09-0.03-0.16v-2.08c0.21-0.27,0.41-0.46,0.59-0.59c0.18-0.12,0.4-0.19,0.65-0.19c0.25,0,0.45,0.08,0.61,0.24
		c0.16,0.16,0.24,0.37,0.24,0.64v1.97c0,0.11-0.02,0.18-0.05,0.21c-0.04,0.03-0.09,0.06-0.18,0.08l-0.39,0.1v0.15
		c0.2-0.01,0.37-0.02,0.52-0.03c0.15-0.01,0.28-0.01,0.39-0.01s0.24,0,0.39,0.01c0.16,0.01,0.33,0.02,0.53,0.03v-0.15l-0.42-0.09
		c-0.11-0.03-0.17-0.06-0.2-0.09c-0.03-0.04-0.04-0.08-0.04-0.15v-2.06c0-0.34-0.07-0.62-0.22-0.83c-0.15-0.21-0.34-0.35-0.59-0.42
		c-0.05-0.01-0.1-0.02-0.16-0.03c-0.05-0.01-0.11-0.01-0.16-0.01c-0.55,0-1.05,0.29-1.52,0.88v-3.36h-0.23
		c-0.43,0.22-0.77,0.33-1.05,0.34v0.11c0.16,0.03,0.28,0.06,0.38,0.1c0.09,0.03,0.16,0.07,0.21,0.11c0.05,0.04,0.08,0.09,0.1,0.15
		c0.02,0.06,0.02,0.13,0.02,0.21V27.42z M20.97,22.17c-0.07,0.08-0.11,0.18-0.11,0.29c0,0.11,0.03,0.21,0.1,0.3
		c0.06,0.09,0.16,0.13,0.29,0.12c0.12,0,0.22-0.04,0.3-0.11s0.12-0.17,0.12-0.3c0-0.27-0.13-0.4-0.38-0.4
		C21.15,22.05,21.05,22.09,20.97,22.17 M20.53,30.19c0.38-0.23,0.67-0.53,0.87-0.9c0.2-0.36,0.3-0.74,0.3-1.12V24h-0.14
		c-0.2,0.31-0.53,0.53-1.01,0.67v0.18c0.17,0.02,0.3,0.04,0.38,0.07c0.08,0.03,0.14,0.07,0.17,0.13c0.03,0.06,0.05,0.14,0.04,0.25
		c0,0.11-0.01,0.24-0.01,0.41v2.53c0,0.44-0.05,0.81-0.16,1.1s-0.28,0.54-0.52,0.75L20.53,30.19z M18.68,22.2
		c-0.08,0.08-0.12,0.18-0.12,0.29s0.04,0.2,0.11,0.28s0.17,0.11,0.28,0.11c0.11,0,0.22-0.04,0.31-0.12
		c0.09-0.08,0.14-0.17,0.14-0.27c0-0.11-0.05-0.2-0.13-0.29s-0.19-0.12-0.29-0.12C18.86,22.07,18.77,22.12,18.68,22.2 M20.02,27.73
		l-0.49-0.11c-0.08-0.02-0.14-0.05-0.17-0.1c-0.03-0.04-0.04-0.11-0.04-0.21v-3.28h-0.15c-0.21,0.34-0.54,0.57-0.99,0.69v0.13
		c0.23,0.05,0.38,0.11,0.46,0.18c0.08,0.07,0.11,0.18,0.11,0.33v1.91c0,0.19-0.1,0.31-0.29,0.34l-0.53,0.1v0.15
		c0.1-0.01,0.24-0.02,0.41-0.03c0.17-0.01,0.38-0.01,0.64-0.01c0.25,0,0.47,0,0.64,0.01c0.17,0.01,0.31,0.02,0.41,0.03V27.73z
		 M15.02,27.85c0.19-0.01,0.4-0.01,0.62-0.01h0.12c0.24,0,0.47,0,0.68,0.01s0.4,0.02,0.57,0.03v-0.15l-0.73-0.1
		c-0.18-0.02-0.29-0.06-0.35-0.12c-0.05-0.05-0.08-0.16-0.08-0.33V25.6c0-0.06,0.02-0.15,0.06-0.24s0.08-0.19,0.14-0.29
		c0.06-0.09,0.12-0.18,0.19-0.24c0.07-0.07,0.14-0.1,0.21-0.1c0.08,0,0.18,0.03,0.3,0.08c0.12,0.05,0.23,0.08,0.33,0.08
		c0.1,0,0.19-0.03,0.26-0.09c0.07-0.06,0.1-0.16,0.1-0.28c0-0.13-0.04-0.23-0.13-0.32c-0.09-0.09-0.21-0.13-0.37-0.13
		c-0.17,0-0.36,0.11-0.58,0.32c-0.22,0.2-0.4,0.42-0.52,0.66c0-0.23,0-0.44-0.01-0.64c-0.01-0.2-0.02-0.39-0.03-0.56h-0.17
		c-0.13,0.27-0.27,0.46-0.44,0.58c-0.16,0.12-0.37,0.22-0.62,0.31l-0.02,0.14l0.26,0.06c0.18,0.04,0.3,0.09,0.36,0.14
		c0.05,0.06,0.08,0.15,0.08,0.28v1.83c0,0.17-0.02,0.28-0.05,0.34c-0.04,0.06-0.12,0.11-0.24,0.14l-0.48,0.09v0.15
		C14.65,27.87,14.83,27.86,15.02,27.85 M13.58,24.53c0.04-0.05,0.12-0.08,0.22-0.09l0.53-0.08v-0.15c-0.15,0.02-0.48,0.03-1.01,0.03
		c-0.53,0-0.83-0.01-0.91-0.03v0.15l0.37,0.06c0.26,0.04,0.39,0.14,0.39,0.31c0,0.1-0.03,0.22-0.1,0.36l-0.87,2.15l-0.92-2.12
		c-0.11-0.27-0.17-0.44-0.17-0.52c0-0.08,0.06-0.13,0.18-0.15l0.59-0.1v-0.15c-0.17,0.02-0.54,0.03-1.1,0.03s-0.92-0.01-1.06-0.03
		v0.15l0.39,0.09c0.1,0.02,0.17,0.05,0.21,0.1c0.04,0.04,0.1,0.14,0.18,0.3l1.44,3.25h0.13l1.33-3.23
		C13.48,24.68,13.54,24.57,13.58,24.53 M7.16,27.72l-0.42-0.08c-0.1-0.02-0.16-0.06-0.19-0.12c-0.03-0.06-0.05-0.16-0.05-0.28v-1.9
		c0-0.87-0.37-1.3-1.1-1.3c-0.22,0-0.48,0.06-0.77,0.19c-0.29,0.12-0.56,0.29-0.8,0.5v-0.86H3.68c-0.24,0.48-0.56,0.76-0.96,0.86
		v0.17c0.2,0.03,0.35,0.08,0.42,0.15c0.08,0.07,0.12,0.2,0.12,0.4v1.88c0,0.17-0.06,0.27-0.19,0.29l-0.51,0.1v0.15
		c0.24-0.02,0.58-0.03,1.03-0.03h0.31c0.15,0,0.28,0,0.4,0.01c0.12,0.01,0.22,0.01,0.31,0.02v-0.15l-0.56-0.13
		c-0.15-0.04-0.23-0.11-0.23-0.21v-2.32c0.39-0.39,0.78-0.58,1.19-0.58c0.35,0,0.58,0.11,0.7,0.32c0.12,0.22,0.18,0.5,0.18,0.86
		v1.61c0,0.23-0.07,0.35-0.21,0.37l-0.52,0.08v0.15c0.66-0.04,1.32-0.04,1.98,0V27.72z M0.76,22.2c-0.08,0.08-0.12,0.18-0.12,0.29
		s0.04,0.2,0.11,0.28s0.17,0.11,0.28,0.11c0.11,0,0.22-0.04,0.31-0.12c0.09-0.08,0.14-0.17,0.14-0.27c0-0.11-0.04-0.2-0.13-0.29
		c-0.09-0.08-0.19-0.12-0.3-0.12S0.84,22.12,0.76,22.2 M2.1,27.73l-0.49-0.11c-0.08-0.02-0.14-0.05-0.17-0.1
		c-0.03-0.04-0.04-0.11-0.04-0.21v-3.28H1.25c-0.21,0.34-0.54,0.57-0.99,0.69v0.13c0.23,0.05,0.38,0.11,0.46,0.18
		s0.11,0.18,0.11,0.33v1.91c0,0.19-0.1,0.31-0.29,0.34L0,27.73v0.15c0.1-0.01,0.24-0.02,0.41-0.03c0.17-0.01,0.38-0.01,0.64-0.01
		s0.47,0,0.64,0.01c0.17,0.01,0.31,0.02,0.41,0.03V27.73z"/>
</g>
<g>
</g>
<g>
</g>
<g>
</g>
<g>
</g>
<g>
</g>
<g>
</g>
</svg>
